<?xml version="1.0" encoding="iso-8859-1"?>
<!-- Generator: Adobe Illustrator 19.0.0, SVG Export Plug-In . SVG Version: 6.00 Build 0)  -->
<svg version="1.1" id="Layer_1" xmlns="http://www.w3.org/2000/svg" xmlns:xlink="http://www.w3.org/1999/xlink" x="0px" y="0px"
	 viewBox="0 0 504 504" style="enable-background:new 0 0 504 504;" xml:space="preserve">
<g>
	<g>
		<path d="M377.6,0H126C56.8,0,0,56.8,0,126.4V378c0,69.2,56.8,126,126,126h251.6c69.6,0,126.4-56.8,126.4-126.4V126.4
			C504,56.8,447.2,0,377.6,0z M238.4,103.6c0.8-12.4,12.4-8,18.4-8.8c75.2,2.4,140,70,139.2,142.8c0,7.2,2.4,17.6-8.4,17.6
			c-10.4,0-7.6-10.8-8.8-18c-10-77.2-46-113.6-124.4-125.6C248,110.8,238,112,238.4,103.6z M350.8,240.8c-12,1.6-9.6-8.8-10.8-15.6
			c-8-47.2-24.8-64.4-73.2-74.8c-7.2-1.6-18.4-0.4-16.4-11.2c1.6-10.4,11.6-6.8,19.2-6c48.4,5.6,88,46.8,87.6,92
			C356.4,230,359.6,239.2,350.8,240.8z M320.8,216c0,6.4-0.8,12.4-8,13.2c-5.2,0.8-8.4-3.6-9.2-8.8c-2-19.2-12.4-30.8-32.4-34
			c-6-0.8-11.6-2.8-8.8-10.8c2-5.2,6.8-6,12-6C296,169.2,320.8,194.4,320.8,216z M396.8,363.6c-8.4,22.8-36.8,46-61.2,45.6
			c-3.6-0.8-10.4-2-16.4-4.4C212,359.6,134,285.2,90,178.8c-14.8-35.6,0.8-66,38-78c6.8-2.4,13.2-2.4,20,0
			c16,5.6,56.4,60.4,57.2,76.4c0.8,12.4-8,19.2-16.4,24.8c-16.4,10.8-16.4,24.4-9.2,40c15.6,34.4,42.4,58.4,77.2,73.6
			c12.4,5.6,24.8,5.2,33.2-7.6c15.2-22.8,34-21.6,54.4-7.6c10.4,7.2,20.8,14,30.4,21.6C388,332.8,404.8,341.6,396.8,363.6z"/>
	</g>
</g>
<g>
</g>
<g>
</g>
<g>
</g>
<g>
</g>
<g>
</g>
<g>
</g>
<g>
</g>
<g>
</g>
<g>
</g>
<g>
</g>
<g>
</g>
<g>
</g>
<g>
</g>
<g>
</g>
<g>
</g>
</svg>
